HIERARCHY
ROOT Hips
{
	OFFSET 53.836498 85.059097 4.782996
	CHANNELS 6 Xposition Yposition Zposition Xrotation Yrotation Zrotation
	JOINT spine
	{
		OFFSET 0.000000 6.392601 0.367610
		CHANNELS 3 Xrotation Yrotation Zrotation
		JOINT spine1
		{
			OFFSET 0.000000 9.176109 0.000004
			CHANNELS 3 Xrotation Yrotation Zrotation
			JOINT spine2
			{
				OFFSET 0.000000 8.792381 0.000004
				CHANNELS 3 Xrotation Yrotation Zrotation
				JOINT Neck
				{
					OFFSET 0.000000 22.573708 1.076256
					CHANNELS 3 Xrotation Yrotation Zrotation
					JOINT Head
					{
						OFFSET 0.000000 6.820114 0.000004
						CHANNELS 3 Xrotation Yrotation Zrotation
						End Site
						{
							OFFSET 0.000000 16.508499 -5.444258
						}
					}
				}
				JOINT RightShoulder
				{
					OFFSET -3.702209 9.495087 -0.515500
					CHANNELS 3 Xrotation Yrotation Zrotation
					JOINT RightArm
					{
						OFFSET 0.000000 12.453697 0.000008
						CHANNELS 3 Xrotation Yrotation Zrotation
						JOINT RightArmRoll
						{
							OFFSET 0.000000 6.286865 0.000004
							CHANNELS 3 Xrotation Yrotation Zrotation
							JOINT RightForeArm
							{
								OFFSET 0.000000 18.311401 0.000012
								CHANNELS 3 Xrotation Yrotation Zrotation
								JOINT RightForeArmRoll
								{
									OFFSET 0.000000 7.054825 0.000004
									CHANNELS 3 Xrotation Yrotation Zrotation
									JOINT RightHand
									{
										OFFSET 0.000000 14.157501 0.000009
										CHANNELS 3 Xrotation Yrotation Zrotation
										End Site
										{
											OFFSET 0.000000 0.100006 0.000000
										}
									}
								}
							}
						}
					}
				}
				JOINT LeftShoulder
				{
					OFFSET 3.702209 9.495087 -0.515500
					CHANNELS 3 Xrotation Yrotation Zrotation
					JOINT LeftArm
					{
						OFFSET 0.000000 12.453697 0.000008
						CHANNELS 3 Xrotation Yrotation Zrotation
						JOINT LeftArmRoll
						{
							OFFSET 0.000000 6.286865 0.000004
							CHANNELS 3 Xrotation Yrotation Zrotation
							JOINT LeftForeArm
							{
								OFFSET 0.000000 18.311401 0.000012
								CHANNELS 3 Xrotation Yrotation Zrotation
								JOINT LeftForeArmRoll
								{
									OFFSET 0.000000 7.054825 0.000004
									CHANNELS 3 Xrotation Yrotation Zrotation
									JOINT LeftHand
									{
										OFFSET 0.000000 14.157501 0.000009
										CHANNELS 3 Xrotation Yrotation Zrotation
										End Site
										{
											OFFSET 0.000000 0.100006 0.000000
										}
									}
								}
							}
						}
					}
				}
			}
		}
	}
	JOINT RightUpLeg
	{
		OFFSET -5.666161 -1.039032 -0.871610
		CHANNELS 3 Xrotation Yrotation Zrotation
		JOINT RightUpLegRoll
		{
			OFFSET 0.000000 16.600502 0.000012
			CHANNELS 3 Xrotation Yrotation Zrotation
			JOINT RightLeg
			{
				OFFSET 0.000000 -20.557198 -0.000012
				CHANNELS 3 Xrotation Yrotation Zrotation
				JOINT RightLegRoll
				{
					OFFSET 0.000000 20.624397 0.000012
					CHANNELS 3 Xrotation Yrotation Zrotation
					JOINT RightFoot
					{
						OFFSET 0.000000 17.166405 0.000012
						CHANNELS 3 Xrotation Yrotation Zrotation
						JOINT RightToeBase
						{
							OFFSET 0.000000 14.350204 0.000008
							CHANNELS 3 Xrotation Yrotation Zrotation
							End Site
							{
								OFFSET 0.006081 6.949707 -0.801057
							}
						}
					}
				}
			}
		}
	}
	JOINT LeftUpLeg
	{
		OFFSET 5.666161 -1.039032 -0.871610
		CHANNELS 3 Xrotation Yrotation Zrotation
		JOINT LeftUpLegRoll
		{
			OFFSET 0.000000 16.600601 0.000012
			CHANNELS 3 Xrotation Yrotation Zrotation
			JOINT LeftLeg
			{
				OFFSET 0.000000 20.557098 0.000012
				CHANNELS 3 Xrotation Yrotation Zrotation
				JOINT LeftLegRoll
				{
					OFFSET 0.000000 20.815094 0.000012
					CHANNELS 3 Xrotation Yrotation Zrotation
					JOINT LeftFoot
					{
						OFFSET 0.000000 16.975708 0.000012
						CHANNELS 3 Xrotation Yrotation Zrotation
						JOINT LeftToeBase
						{
							OFFSET 0.000000 14.350204 0.000008
							CHANNELS 3 Xrotation Yrotation Zrotation
							End Site
							{
								OFFSET -0.027260 6.949707 -0.801057
							}
						}
					}
				}
			}
		}
	}
}
MOTION
Frames: 5
Frame Time: 0.041667
52.535393 91.209000 9.231931 5.641599 -1.406339 -0.516987 -2.038860 0.082582 -0.377190 -0.074287 0.174861 -0.752186 1.570728 0.165836 -0.754228 12.564905 -0.604975 1.548452 6.188182 -0.557565 -0.734500 -1.858699 -14.430484 50.292493 -38.655951 18.739184 96.710718 -0.000006 -0.000009 0.000000 2.911282 -0.579602 -5.432659 -0.000004 -3.002047 -0.000003 -5.000197 0.000164 7.998938 -3.454632 14.900382 -43.619579 -34.086892 -11.207369 -98.558947 -0.000005 0.000009 -0.000000 25.294356 1.105699 8.755693 0.000003 2.999996 0.000012 -5.000263 -0.000159 -7.998729 -16.247603 -0.098814 178.916068 179.999991 -0.879023 0.000004 159.514820 -1.818372 4.686819 0.000004 0.276505 -0.000002 68.126247 2.730945 -6.685794 25.439875 0.005465 7.355648 -13.256176 -2.050384 -177.685568 -0.000003 -0.980548 0.000003 -21.373549 1.021126 -1.260595 -0.000001 -0.264579 -0.000001 68.875040 -2.354794 6.810411 25.433608 0.002996 -7.355625 
52.537693 91.080215 9.235361 5.573203 -1.411734 -0.621140 -2.026743 0.095963 -0.356056 -0.050008 0.200990 -0.709599 1.595025 0.192475 -0.711955 12.679631 -0.618797 1.706106 6.035693 -0.575839 -0.875527 -1.763405 -14.222269 50.652014 -38.513784 18.510292 96.735020 0.000003 -0.000009 0.000001 2.498340 -0.558513 -5.369833 -0.000007 -3.004625 -0.000008 -5.000186 0.000154 7.998941 -3.317656 14.511975 -43.991780 -33.807500 -10.938508 -98.575913 -0.000002 0.000007 0.000013 24.577317 1.023329 8.591243 -0.000002 3.000002 0.000010 -5.000256 -0.000161 -7.998726 -16.218131 -0.006407 179.207840 179.999991 -0.875021 0.000004 159.476120 -1.820129 4.681885 0.000005 0.276152 -0.000001 68.131315 2.740179 -6.681374 25.393513 0.020403 7.355710 -13.270859 -2.077574 -177.744089 -0.000002 -0.980675 0.000003 -21.539557 1.025473 -1.233071 -0.000003 -0.267032 0.000000 68.893407 -2.362902 6.806914 25.369908 0.011166 -7.355613 
52.520794 90.929726 9.249401 5.503579 -1.417196 -0.727162 -2.014882 0.109726 -0.334471 -0.026226 0.227880 -0.666095 1.618807 0.219884 -0.668778 12.799665 -0.632147 1.865069 5.883256 -0.593760 -1.019070 -1.668519 -14.018530 51.013471 -38.333668 18.279287 96.754807 -0.000001 -0.000011 -0.000001 2.133326 -0.543213 -5.276497 0.000001 -3.007666 0.000001 -5.000196 0.000156 7.998945 -3.181006 14.112951 -44.368304 -33.417209 -10.675131 -98.558667 0.000003 0.000004 0.000014 23.787788 0.934437 8.343876 0.000003 3.000003 0.000015 -5.000261 -0.000162 -7.998730 -16.189976 0.091405 179.502549 179.999991 -0.871019 0.000004 159.443294 -1.821653 4.672464 0.000002 0.275475 -0.000004 68.135064 2.752014 -6.676038 25.324484 0.042630 7.355858 -13.285018 -2.104397 -177.798690 -0.000006 -0.980654 0.000004 -21.704019 1.029335 -1.202497 -0.000003 -0.268804 -0.000000 68.900312 -2.374590 6.802205 25.275115 0.023336 -7.355578 
52.506393 90.816628 9.259043 5.433097 -1.422489 -0.834144 -2.003211 0.123755 -0.312605 -0.002847 0.255297 -0.622036 1.642190 0.247827 -0.625049 12.923287 -0.644995 2.024844 5.731131 -0.611320 -1.164553 -1.574399 -13.819858 51.376440 -38.122769 18.047376 96.771930 -0.000004 -0.000012 -0.000000 1.812218 -0.533414 -5.158136 0.000003 -3.011114 -0.000002 -5.000188 0.000162 7.998934 -3.045430 13.705828 -44.748299 -32.931849 -10.417032 -98.511996 0.000004 0.000006 0.000011 22.937484 0.844646 8.024904 0.000002 3.000001 0.000017 -5.000265 -0.000161 -7.998727 -16.164075 0.193160 179.799266 179.999991 -0.866019 0.000004 159.412613 -1.822203 4.658423 0.000002 0.274571 -0.000003 68.138131 2.765611 -6.669880 25.239660 0.069964 7.356130 -13.299264 -2.131086 -177.850381 -0.000002 -0.980553 0.000003 -21.868307 1.032714 -1.169123 -0.000004 -0.270091 -0.000001 68.898420 -2.388873 6.796716 25.158548 0.038302 -7.355505 
52.490791 90.670914 9.268423 5.362080 -1.427373 -0.941180 -1.991686 0.137931 -0.290637 0.020231 0.283009 -0.577770 1.665276 0.276067 -0.581119 13.048908 -0.657343 2.184936 5.579549 -0.628513 -1.311376 -1.481223 -13.626627 51.740472 -37.887981 17.815674 96.788084 -0.000013 -0.000016 0.000000 1.531072 -0.528622 -5.020230 -0.000001 -3.014860 -0.000003 -5.000195 0.000156 7.998941 -2.911689 13.293282 -45.131062 -32.367232 -10.163785 -98.440860 -0.000001 0.000007 0.000004 22.038162 0.759157 7.645814 -0.000001 2.999996 0.000017 -5.000269 -0.000162 -7.998722 -16.141457 0.298201 180.094221 179.999991 -0.862030 0.000004 159.380374 -1.821107 4.639658 0.000006 0.273543 -0.000002 68.140972 2.780172 -6.663394 25.145674 0.100193 7.356543 -13.313914 -2.157836 -177.900118 -0.000002 -0.980445 0.000003 -22.034337 1.035640 -1.133230 -0.000002 -0.271086 0.000000 68.890435 -2.404746 6.790799 25.029583 0.054860 -7.355395 
